<?xml version="1.0" encoding="utf-8"?><svg fill="none" viewBox="0 0 800 800" xmlns="http://www.w3.org/2000/svg"><defs /><g transform="matrix(1,0,0,1,381.382,418.618)" id="background"><g id="background"><path fill="#e7efff" fill-opacity="1" d="M0,-232.727C128.532,-232.727,232.727,-128.532,232.727,0C232.727,128.532,128.532,232.727,0,232.727C-128.532,232.727,-232.727,128.532,-232.727,0C-232.727,-128.532,-128.532,-232.727,0,-232.727Z" /></g></g><g visibility="hidden" id="dot 01"><animate repeatCount="indefinite" begin="0.5s" calcMode="discrete" fill="freeze" dur="10s" values="visible; visible" keyTimes="0; 1" attributeName="visibility" /><g transform="translate(167.273,162.618)"><g transform="scale(0,0)"><animateTransform repeatCount="indefinite" type="scale" attributeName="transform" dur="4s" begin="0.5s" calcMode="spline" values="0 0; 1 1; 0 0; 1 1; 0 0; 1 1; 0 0; 1 1; 0 0" keyTimes="0; 0.125; 0.25; 0.375; 0.5; 0.625; 0.75; 0.875; 1" keySplines="0.333 0 0.667 1; 0.333 0 0.667 1; 0.333 0 0.667 1; 0.333 0 0.667 1; 0.333 0 0.667 1; 0.333 0 0.667 1; 0.333 0 0.667 1; 0.333 0 0.667 1" fill="freeze" /><g transform="translate(0,0)"><g id="dot 01"><path fill="#ff4d69" fill-opacity="1" d="M0,-13.964C7.712,-13.964,13.964,-7.712,13.964,0C13.964,7.712,7.712,13.964,0,13.964C-7.712,13.964,-13.964,7.712,-13.964,0C-13.964,-7.712,-7.712,-13.964,0,-13.964Z" /></g></g></g></g></g><g id="dot 02"><g transform="translate(637.382,209.536)"><g transform="scale(0,0)"><animateTransform repeatCount="indefinite" type="scale" attributeName="transform" dur="2s" begin="0s" calcMode="spline" values="0 0; 1 1; 0 0; 1 1; 0 0" keyTimes="0; 0.25; 0.5; 0.75; 1" keySplines="0.333 0 0.667 1; 0.333 0 0.667 1; 0.333 0 0.667 1; 0.333 0 0.667 1" fill="freeze" /><g transform="translate(0,0)"><g id="dot 02"><path fill="#00c99f" fill-opacity="1" d="M0,-13.964C7.712,-13.964,13.964,-7.712,13.964,0C13.964,7.712,7.712,13.964,0,13.964C-7.712,13.964,-13.964,7.712,-13.964,0C-13.964,-7.712,-7.712,-13.964,0,-13.964Z" /></g></g></g></g></g><g visibility="hidden" id="dot 03"><animate repeatCount="indefinite" begin="0.5s" calcMode="discrete" fill="freeze" dur="10s" values="visible; visible" keyTimes="0; 1" attributeName="visibility" /><g transform="translate(628.073,609.455)"><g transform="scale(0,0)"><animateTransform repeatCount="indefinite" type="scale" attributeName="transform" dur="4s" begin="0.5s" calcMode="spline" values="0 0; 1 1; 0 0; 1 1; 0 0; 1 1; 0 0; 1 1; 0 0" keyTimes="0; 0.125; 0.25; 0.375; 0.5; 0.625; 0.75; 0.875; 1" keySplines="0.333 0 0.667 1; 0.333 0 0.667 1; 0.333 0 0.667 1; 0.333 0 0.667 1; 0.333 0 0.667 1; 0.333 0 0.667 1; 0.333 0 0.667 1; 0.333 0 0.667 1" fill="freeze" /><g transform="translate(0,0)"><g id="dot 03"><path fill="#ffa100" fill-opacity="1" d="M0,-13.964C7.712,-13.964,13.964,-7.712,13.964,0C13.964,7.712,7.712,13.964,0,13.964C-7.712,13.964,-13.964,7.712,-13.964,0C-13.964,-7.712,-7.712,-13.964,0,-13.964Z" /></g></g></g></g></g><g id="dot 04"><g transform="translate(176.582,604.8)"><g transform="scale(0,0)"><animateTransform repeatCount="indefinite" type="scale" attributeName="transform" dur="2s" begin="0s" calcMode="spline" values="0 0; 1 1; 0 0; 1 1; 0 0" keyTimes="0; 0.25; 0.5; 0.75; 1" keySplines="0.333 0 0.667 1; 0.333 0 0.667 1; 0.333 0 0.667 1; 0.333 0 0.667 1" fill="freeze" /><g transform="translate(0,0)"><g id="dot 04"><path fill="#00c99f" fill-opacity="1" d="M0,-13.964C7.712,-13.964,13.964,-7.712,13.964,0C13.964,7.712,7.712,13.964,0,13.964C-7.712,13.964,-13.964,7.712,-13.964,0C-13.964,-7.712,-7.712,-13.964,0,-13.964Z" /></g></g></g></g></g><g id="mike"><g transform="translate(181.236,623.418)"><g transform="rotate(0)"><animateTransform repeatCount="indefinite" type="rotate" attributeName="transform" dur="2.5s" begin="0s" calcMode="spline" values="0; -9; 0" keyTimes="0; 0.5; 1" keySplines="0.333 0 0.667 1; 0.333 0 0.667 1" fill="freeze" /><g transform="scale(1,1) translate(-181.236,-623.418)"><g transform="matrix(1,0,0,1,243.631,570.566)" id="stick"><g id="stick"><path fill="#8fa2ff" fill-opacity="1" d="M38.409,109.25C18.476,99.937,-0.032,87.838,-16.561,73.317L-39.121,-58.857L30.697,-58.857L38.409,109.25Z" /></g></g></g></g></g></g><g transform="matrix(1,0,0,1,381.382,418.618)" id="background 2"><g id="background"><path fill="#e7efff" fill-opacity="1" d="M0,-232.727C128.532,-232.727,232.727,-128.532,232.727,0C232.727,128.532,128.532,232.727,0,232.727C-128.532,232.727,-232.727,128.532,-232.727,0C-232.727,-128.532,-128.532,-232.727,0,-232.727Z" /></g></g><g id="mike"><g transform="translate(181.236,623.418)"><g transform="rotate(0)"><animateTransform repeatCount="indefinite" type="rotate" attributeName="transform" dur="2.5s" begin="0s" calcMode="spline" values="0; -9; 0" keyTimes="0; 0.5; 1" keySplines="0.333 0 0.667 1; 0.333 0 0.667 1" fill="freeze" /><g transform="scale(1,1) translate(-181.236,-623.418)"><g id="Group 11" transform="matrix(1,0,0,1,544.291,455.855)"><path fill="#4e6aff" fill-opacity="1" d="M0,-41.891C23.136,-41.891,41.891,-23.136,41.891,0C41.891,23.136,23.136,41.891,0,41.891C-23.136,41.891,-41.891,23.136,-41.891,0C-41.891,-23.136,-23.136,-41.891,0,-41.891Z" /></g><g id="Group 10" transform="matrix(1,0,0,1,288.291,534.982)"><path fill="#ff4d69" fill-opacity="1" d="M-13.964,-13.964L13.964,-13.964L13.964,-13.964L13.964,-4.655C13.964,5.628,5.628,13.964,-4.655,13.964L-13.964,13.964L-13.964,13.964L-13.964,-13.964L-13.964,-13.964Z" /></g><g id="Group 9" transform="matrix(1,0,0,1,534.982,455.855)"><path fill="#323fd4" fill-opacity="1" d="M0,-167.564L0,-167.564C10.283,-167.564,18.618,-159.228,18.618,-148.945L18.618,148.945C18.618,159.228,10.283,167.564,0,167.564L0,167.564C-10.283,167.564,-18.618,159.228,-18.618,148.945L-18.618,-148.945C-18.618,-159.228,-10.283,-167.564,0,-167.564Z" /></g><g id="Group 8" transform="matrix(1,0,0,1,427.927,455.855)"><path fill="#8fa2ff" fill-opacity="1" d="M88.436,-134.982L88.436,134.982C43.059,95.657,-13.583,71.677,-73.402,66.467L-88.436,65.164L-88.436,-65.164L-73.402,-66.467C-13.583,-71.677,43.059,-95.657,88.436,-134.982Z" /></g><g id="Group 7" transform="matrix(1,0,0,1,320.873,455.855)"><path fill="#4e6aff" fill-opacity="1" d="M-13.964,-74.473L13.964,-74.473C16.535,-74.473,18.618,-72.389,18.618,-69.818L18.618,69.818C18.618,72.389,16.535,74.473,13.964,74.473L-13.964,74.473C-16.535,74.473,-18.618,72.389,-18.618,69.818L-18.618,-69.818C-18.618,-72.389,-16.535,-74.473,-13.964,-74.473Z" /></g><g id="Group 6" transform="matrix(1,0,0,1,241.745,455.855)"><path fill="#323fd4" fill-opacity="1" d="M-37.236,-65.164L60.509,-65.164L60.509,-65.164L60.509,65.164L60.509,65.164L-37.236,65.164C-50.089,65.164,-60.509,54.744,-60.509,41.891L-60.509,-41.891C-60.509,-54.744,-50.089,-65.164,-37.236,-65.164Z" /></g><g id="Group 5" transform="matrix(1,0,0,1,488.436,455.855)"><path fill="#4e6aff" fill-opacity="1" d="M27.927,-134.982L27.927,134.982C10.864,120.226,-7.884,107.539,-27.927,97.187L-27.927,-97.187C-7.884,-107.539,10.864,-120.226,27.927,-134.982Z" /></g><g id="Group 4" transform="matrix(1,0,0,1,213.818,413.964)"><path fill="#ffffff" fill-opacity="1" d="M-9.309,-4.655L9.309,-4.655C11.88,-4.655,13.964,-2.571,13.964,0L13.964,0C13.964,2.571,11.88,4.655,9.309,4.655L-9.309,4.655C-11.88,4.655,-13.964,2.571,-13.964,0L-13.964,0C-13.964,-2.571,-11.88,-4.655,-9.309,-4.655Z" /></g><g id="Group 3" transform="matrix(1,0,0,1,213.818,437.236)"><path fill="#ffffff" fill-opacity="1" d="M-9.309,-4.655L9.309,-4.655C11.88,-4.655,13.964,-2.571,13.964,0L13.964,0C13.964,2.571,11.88,4.655,9.309,4.655L-9.309,4.655C-11.88,4.655,-13.964,2.571,-13.964,0L-13.964,0C-13.964,-2.571,-11.88,-4.655,-9.309,-4.655Z" /></g><g id="Group 2" transform="matrix(1,0,0,1,278.982,497.745)"><path fill="#ffffff" fill-opacity="1" d="M0,-4.655C2.571,-4.655,4.655,-2.571,4.655,0C4.655,2.571,2.571,4.655,0,4.655C-2.571,4.655,-4.655,2.571,-4.655,0C-4.655,-2.571,-2.571,-4.655,0,-4.655Z" /></g><g id="Group 1" transform="matrix(1,0,0,1,255.709,497.745)"><path fill="#ffffff" fill-opacity="1" d="M0,-4.655C2.571,-4.655,4.655,-2.571,4.655,0C4.655,2.571,2.571,4.655,0,4.655C-2.571,4.655,-4.655,2.571,-4.655,0C-4.655,-2.571,-2.571,-4.655,0,-4.655Z" /></g></g></g></g></g><g id="mike"><g transform="translate(181.236,623.418)"><g transform="rotate(0)"><animateTransform repeatCount="indefinite" type="rotate" attributeName="transform" dur="2.5s" begin="0s" calcMode="spline" values="0; -9; 0" keyTimes="0; 0.5; 1" keySplines="0.333 0 0.667 1; 0.333 0 0.667 1" fill="freeze" /><g transform="scale(1,1) translate(-181.236,-623.418)"><g transform="matrix(1,0,0,1,400,400)" id="Shape Layer 11"><animate repeatCount="indefinite" begin="0s" calcMode="discrete" fill="freeze" dur="0.867s" values="visible; hidden" keyTimes="0; 1" attributeName="visibility" /><g id="Shape 1"><path stroke-linejoin="miter" stroke-linecap="round" stroke-width="19" stroke-opacity="1" stroke="#ffa100" d="M204.5,56L242,56" /></g></g></g></g></g></g><g id="mike"><g transform="translate(181.236,623.418)"><g transform="rotate(0)"><animateTransform repeatCount="indefinite" type="rotate" attributeName="transform" dur="2.5s" begin="0s" calcMode="spline" values="0; -9; 0" keyTimes="0; 0.5; 1" keySplines="0.333 0 0.667 1; 0.333 0 0.667 1" fill="freeze" /><g transform="scale(1,1) translate(-181.236,-623.418)"><g transform="matrix(0.731,0.682,-0.682,0.731,489.234,327.118)" id="Shape Layer 12"><animate repeatCount="indefinite" begin="0s" calcMode="discrete" fill="freeze" dur="0.867s" values="visible; hidden" keyTimes="0; 1" attributeName="visibility" /><g id="Shape 1"><path stroke-linejoin="miter" stroke-linecap="round" stroke-width="19" stroke-opacity="1" stroke="#ffa100" d="M204.5,56L243.023,57.097" /></g></g></g></g></g></g><g id="mike"><g transform="translate(181.236,623.418)"><g transform="rotate(0)"><animateTransform repeatCount="indefinite" type="rotate" attributeName="transform" dur="2.5s" begin="0s" calcMode="spline" values="0; -9; 0" keyTimes="0; 0.5; 1" keySplines="0.333 0 0.667 1; 0.333 0 0.667 1" fill="freeze" /><g transform="scale(1,1) translate(-181.236,-623.418)"><g transform="matrix(0.731,-0.682,0.682,0.731,412.351,502.971)" id="Shape Layer 13"><animate repeatCount="indefinite" begin="0s" calcMode="discrete" fill="freeze" dur="0.867s" values="visible; hidden" keyTimes="0; 1" attributeName="visibility" /><g id="Shape 1"><path stroke-linejoin="miter" stroke-linecap="round" stroke-width="19" stroke-opacity="1" stroke="#ffa100" d="M204.5,56L242.949,54.977" /></g></g></g></g></g></g><g id="mike"><g transform="translate(181.236,623.418)"><g transform="rotate(0)"><animateTransform repeatCount="indefinite" type="rotate" attributeName="transform" dur="2.5s" begin="0s" calcMode="spline" values="0; -9; 0" keyTimes="0; 0.5; 1" keySplines="0.333 0 0.667 1; 0.333 0 0.667 1" fill="freeze" /><g transform="scale(1,1) translate(-181.236,-623.418)"><g transform="matrix(1,0,0,1,400,400)" visibility="hidden" id="Shape Layer 5"><animate repeatCount="indefinite" begin="0.833s" calcMode="discrete" fill="freeze" dur="0.367s" values="visible; hidden" keyTimes="0; 1" attributeName="visibility" /><g id="Shape 1"><path stroke-linejoin="miter" stroke-linecap="round" stroke-width="19" stroke-opacity="1" stroke="#ffa100" d="M204.5,56L242,56" /></g></g></g></g></g></g><g id="mike"><g transform="translate(181.236,623.418)"><g transform="rotate(0)"><animateTransform repeatCount="indefinite" type="rotate" attributeName="transform" dur="2.5s" begin="0s" calcMode="spline" values="0; -9; 0" keyTimes="0; 0.5; 1" keySplines="0.333 0 0.667 1; 0.333 0 0.667 1" fill="freeze" /><g transform="scale(1,1) translate(-181.236,-623.418)"><g transform="matrix(0.731,0.682,-0.682,0.731,489.234,327.118)" visibility="hidden" id="Shape Layer 6"><animate repeatCount="indefinite" begin="0.833s" calcMode="discrete" fill="freeze" dur="0.367s" values="visible; hidden" keyTimes="0; 1" attributeName="visibility" /><g id="Shape 1"><path stroke-linejoin="miter" stroke-linecap="round" stroke-width="19" stroke-opacity="1" stroke="#ffa100" d="M204.5,56L243.023,57.097" /></g></g></g></g></g></g><g id="mike"><g transform="translate(181.236,623.418)"><g transform="rotate(0)"><animateTransform repeatCount="indefinite" type="rotate" attributeName="transform" dur="2.5s" begin="0s" calcMode="spline" values="0; -9; 0" keyTimes="0; 0.5; 1" keySplines="0.333 0 0.667 1; 0.333 0 0.667 1" fill="freeze" /><g transform="scale(1,1) translate(-181.236,-623.418)"><g transform="matrix(0.731,-0.682,0.682,0.731,412.351,502.971)" visibility="hidden" id="Shape Layer 7"><animate repeatCount="indefinite" begin="0.833s" calcMode="discrete" fill="freeze" dur="0.367s" values="visible; hidden" keyTimes="0; 1" attributeName="visibility" /><g id="Shape 1"><path stroke-linejoin="miter" stroke-linecap="round" stroke-width="19" stroke-opacity="1" stroke="#ffa100" d="M204.5,56L242.949,54.977" /></g></g></g></g></g></g><g id="mike"><g transform="translate(181.236,623.418)"><g transform="rotate(0)"><animateTransform repeatCount="indefinite" type="rotate" attributeName="transform" dur="2.5s" begin="0s" calcMode="spline" values="0; -9; 0" keyTimes="0; 0.5; 1" keySplines="0.333 0 0.667 1; 0.333 0 0.667 1" fill="freeze" /><g transform="scale(1,1) translate(-181.236,-623.418)"><g transform="matrix(1,0,0,1,400,400)" visibility="hidden" id="Shape Layer 8"><animate repeatCount="indefinite" begin="1.167s" calcMode="discrete" fill="freeze" dur="1.367s" values="visible; visible" keyTimes="0; 1" attributeName="visibility" /><g id="Shape 1"><path stroke-linejoin="miter" stroke-linecap="round" stroke-width="19" stroke-opacity="1" stroke="#ffa100" d="M204.5,56L242,56" /></g></g></g></g></g></g><g id="mike"><g transform="translate(181.236,623.418)"><g transform="rotate(0)"><animateTransform repeatCount="indefinite" type="rotate" attributeName="transform" dur="2.5s" begin="0s" calcMode="spline" values="0; -9; 0" keyTimes="0; 0.5; 1" keySplines="0.333 0 0.667 1; 0.333 0 0.667 1" fill="freeze" /><g transform="scale(1,1) translate(-181.236,-623.418)"><g transform="matrix(0.731,0.682,-0.682,0.731,489.234,327.118)" visibility="hidden" id="Shape Layer 9"><animate repeatCount="indefinite" begin="1.167s" calcMode="discrete" fill="freeze" dur="1.367s" values="visible; visible" keyTimes="0; 1" attributeName="visibility" /><g id="Shape 1"><path stroke-linejoin="miter" stroke-linecap="round" stroke-width="19" stroke-opacity="1" stroke="#ffa100" d="M204.5,56L243.023,57.097" /></g></g></g></g></g></g><g id="mike"><g transform="translate(181.236,623.418)"><g transform="rotate(0)"><animateTransform repeatCount="indefinite" type="rotate" attributeName="transform" dur="2.5s" begin="0s" calcMode="spline" values="0; -9; 0" keyTimes="0; 0.5; 1" keySplines="0.333 0 0.667 1; 0.333 0 0.667 1" fill="freeze" /><g transform="scale(1,1) translate(-181.236,-623.418)"><g transform="matrix(0.731,-0.682,0.682,0.731,412.351,502.971)" visibility="hidden" id="Shape Layer 10"><animate repeatCount="indefinite" begin="1.167s" calcMode="discrete" fill="freeze" dur="1.367s" values="visible; visible" keyTimes="0; 1" attributeName="visibility" /><g id="Shape 1"><path stroke-linejoin="miter" stroke-linecap="round" stroke-width="19" stroke-opacity="1" stroke="#ffa100" d="M204.5,56L242.949,54.977" /></g></g></g></g></g></g><g id="circle"><g transform="translate(367.418,246.4)"><g transform="scale(1,1)"><animateTransform repeatCount="indefinite" type="scale" attributeName="transform" dur="2.5s" begin="0s" calcMode="spline" values="1 1; 0.8 0.8; 1 1" keyTimes="0; 0.5; 1" keySplines="0.333 0 0.667 1; 0.333 0 0.667 1" fill="freeze" /><g transform="translate(0,0)"><g id="circle"><path fill="#00c99f" fill-opacity="1" d="M0,-97.745C53.983,-97.745,97.745,-53.983,97.745,0C97.745,53.983,53.983,97.745,0,97.745C-53.983,97.745,-97.745,53.983,-97.745,0C-97.745,-53.983,-53.983,-97.745,0,-97.745Z" /></g></g></g></g></g><g id="circle"><g transform="translate(367.418,246.4)"><g transform="scale(1,1)"><animateTransform repeatCount="indefinite" type="scale" attributeName="transform" dur="2.5s" begin="0s" calcMode="spline" values="1 1; 0.8 0.8; 1 1" keyTimes="0; 0.5; 1" keySplines="0.333 0 0.667 1; 0.333 0 0.667 1" fill="freeze" /><g transform="translate(0,0)"><g transform="matrix(1,0,0,1,-367.418,-246.4)" id="percentage"><g id="Group 3" transform="matrix(1,0,0,1,367.145,246.674)"><path fill="#ffffff" fill-opacity="1" d="M48.727,-48.727C45.096,-52.336,39.233,-52.336,35.602,-48.727L-48.18,35.054C-52.085,38.398,-52.54,44.275,-49.196,48.18C-45.852,52.085,-39.975,52.54,-36.07,49.196C-35.706,48.884,-35.366,48.544,-35.054,48.18L48.727,-35.602C52.336,-39.233,52.336,-45.096,48.727,-48.727Z" /></g><g id="Group 2" transform="matrix(1,0,0,1,330.182,213.818)"><path fill="#ffffff" fill-opacity="1" d="M-9.309,0C-9.309,-5.141,-5.141,-9.309,0,-9.309C5.141,-9.309,9.309,-5.141,9.309,0C9.309,5.141,5.141,9.309,0,9.309C-5.141,9.309,-9.309,5.141,-9.309,0ZM27.927,0C27.927,-15.424,15.424,-27.927,0,-27.927C-15.424,-27.927,-27.927,-15.424,-27.927,0C-27.927,15.424,-15.424,27.927,0,27.927C15.424,27.927,27.927,15.424,27.927,0Z" /></g><g id="Group 1" transform="matrix(1,0,0,1,404.655,278.982)"><path fill="#ffffff" fill-opacity="1" d="M0,9.309C-5.141,9.309,-9.309,5.141,-9.309,0C-9.309,-5.141,-5.141,-9.309,0,-9.309C5.141,-9.309,9.309,-5.141,9.309,0C9.309,5.141,5.141,9.309,0,9.309ZM0,-27.927C-15.424,-27.927,-27.927,-15.424,-27.927,0C-27.927,15.424,-15.424,27.927,0,27.927C15.424,27.927,27.927,15.424,27.927,0C27.927,-15.424,15.424,-27.927,0,-27.927Z" /></g></g></g></g></g></g></svg>