<?xml version="1.0" encoding="utf-8"?>
<!-- Generator: Adobe Illustrator 27.5.0, SVG Export Plug-In . SVG Version: 6.00 Build 0)  -->
<svg version="1.1" xmlns="http://www.w3.org/2000/svg" xmlns:xlink="http://www.w3.org/1999/xlink" x="0px" y="0px"
	 viewBox="0 0 185 210" style="enable-background:new 0 0 185 210;" xml:space="preserve">
<style type="text/css">
	.st0{fill:#475BE1;}
	.st1{fill:#FFFFFF;stroke:#475BE1;stroke-width:1.7485;stroke-miterlimit:10;}
	.st2{fill:#CCEAF4;}
	.st3{fill:#FFFFFF;}
	.st4{fill:#0C101F;}
	.st5{fill:#2D44DD;}
	.st6{fill:#3243D4;}
	.st7{fill:none;stroke:#3243D4;stroke-width:2;stroke-miterlimit:10;}
	.st8{fill:none;stroke:#475BE1;stroke-width:1.645;stroke-miterlimit:10;}
	.st9{fill:none;stroke:#475BE1;stroke-width:1.3;stroke-linecap:round;stroke-linejoin:round;stroke-miterlimit:10;}
	.st10{fill:none;stroke:#0C101F;stroke-width:1.3;stroke-miterlimit:10;}
	.st11{opacity:0.2;fill:none;stroke:#000000;stroke-width:1.3;stroke-linecap:round;stroke-linejoin:round;stroke-miterlimit:10;}
	.st12{fill:#FFFFFF;stroke:#475BE1;stroke-width:2.5296;stroke-miterlimit:10;}
	.st13{fill:#FFB94A;}
	.st14{fill:none;stroke:#475BE1;stroke-width:2;stroke-miterlimit:10;}
	.st15{fill:#FFFEFD;}
	.st16{fill:#FFFFFF;stroke:#475BE1;stroke-width:3.1251;stroke-miterlimit:10;}
	.st17{fill:#FFFFFF;stroke:#475BE1;stroke-width:2.6126;stroke-miterlimit:10;}
	.st18{opacity:0.8;fill:url(#SVGID_1_);}
	.st19{clip-path:url(#SVGID_00000176035118016908319200000012680180988261735559_);}
	.st20{fill:#4B5BD9;}
	.st21{fill:none;stroke:#FFB94A;stroke-width:4;stroke-miterlimit:10;stroke-dasharray:10;}
	.st22{fill:none;stroke:#FFFFFF;stroke-width:1.2;stroke-miterlimit:10;}
	.st23{fill:#FFFFFF;stroke:#FFFFFF;stroke-width:0.5;stroke-miterlimit:10;}
	.st24{fill:#475BE1;stroke:#475BE1;stroke-width:0.5;stroke-miterlimit:10;}
	.st25{fill:#FFFEFC;}
	.st26{opacity:0.2;fill:none;stroke:#4B5BD9;stroke-miterlimit:10;}
	.st27{clip-path:url(#SVGID_00000060738680117891161610000015012315561963594940_);}
	.st28{fill:none;stroke:#FFB94A;stroke-width:3.6416;stroke-miterlimit:10;stroke-dasharray:9.1039;}
	.st29{fill:none;}
</style>
<g id="Capa_3">
</g>
<g id="Capa_2">
	<path class="st13" d="M102.2,110.6c-1,2.5-2.1,5-3.2,7.5l0,0C100.1,115.7,101.1,113.1,102.2,110.6z"/>
	<path class="st13" d="M73.2,65.1C73.2,65.1,73.2,65.1,73.2,65.1C73.2,65.1,73.2,65.1,73.2,65.1z"/>
	<path class="st13" d="M77.3,65.1c-0.1,0-0.2,0-0.3,0C77.1,65.1,77.2,65.1,77.3,65.1z"/>
	<path class="st13" d="M77,65.1c0,0-0.1,0-0.1,0C76.9,65.1,77,65.1,77,65.1z"/>
	<path class="st13" d="M77.4,65c0,0-0.1,0.1-0.1,0.1C77.3,65.1,77.4,65.1,77.4,65z"/>
	<path class="st13" d="M115.6,83.7c-0.4,0.1-0.7,0.3-1,0.5C114.9,84,115.3,83.8,115.6,83.7C115.6,83.7,115.6,83.7,115.6,83.7z"/>
	<path class="st13" d="M72.8,97.7c0,0-0.1,0-0.2,0C72.7,97.6,72.7,97.6,72.8,97.7L72.8,97.7z"/>
	<path class="st13" d="M115.9,83.3c0.1,0,0.2,0,0.2,0C116,83.3,116,83.3,115.9,83.3z"/>
	<path class="st13" d="M112.3,133.5c-0.7-0.2-1.2-0.6-1.6-1C111.1,132.9,111.6,133.3,112.3,133.5L112.3,133.5z"/>
	<path class="st13" d="M116.1,83.3c0,0,0.1,0,0.1,0C116.2,83.3,116.2,83.3,116.1,83.3z"/>
	<path class="st13" d="M79.2,96.5c0.5,0,1,0,1.4,0C80.1,96.5,79.6,96.5,79.2,96.5z"/>
	<path class="st13" d="M102.8,109c0.7-1.6,1.3-3.2,2-4.8C104.1,105.8,103.5,107.4,102.8,109z"/>
	<path class="st13" d="M125.5,149.1c0.2,0.1,0.5-0.2,0.8-0.5c1.2,0,2.4-0.1,3.7-0.1c-1.2,0-2.4,0-3.7,0.1
		C126,148.9,125.8,149.2,125.5,149.1z"/>
	<path class="st13" d="M119.4,83.4c0.1,0.1,0.1,0.2,0.1,0.3C119.5,83.6,119.5,83.5,119.4,83.4z"/>
	<path class="st13" d="M125.2,148.9c0.1,0.2,0.2,0.2,0.3,0.2C125.4,149.1,125.3,149,125.2,148.9z"/>
	<path class="st13" d="M50.8,71.2c0.1-0.2,0.2-0.5,0.2-0.8C51,70.7,50.9,71,50.8,71.2z"/>
	<path class="st13" d="M79.2,64.5c0.2,0,0.3,0,0.4-0.2C79.6,64.5,79.4,64.5,79.2,64.5z"/>
	<polygon class="st13" points="72.2,64.8 72.2,64.8 72.2,64.8 	"/>
	<path class="st13" d="M73.2,65.1C73.2,65,73.1,65,73.2,65.1C73.1,65,73.2,65,73.2,65.1z"/>
	<path class="st13" d="M73.1,65c0-0.1-0.1-0.1-0.1-0.2C73.1,64.9,73.1,65,73.1,65z"/>
	<path class="st29" d="M76.6,65.1c0.1,0,0.2,0,0.3,0c0,0,0.1,0,0.1,0c0,0,0,0,0,0c0.1,0,0.2,0,0.3,0c0,0,0,0,0,0c0,0,0.1,0,0.1-0.1
		c0.1-0.1,0.1-0.2,0.2-0.3c0,0,0,0,0,0C77.2,64.6,76.8,64.7,76.6,65.1z"/>
	<path class="st29" d="M73,64.7c0,0,0,0.1,0,0.1c0,0.1,0,0.1,0.1,0.2c0,0,0,0,0.1,0.1c0,0,0,0,0,0c0,0,0,0,0.1,0
		c0.1,0,0.2,0,0.3-0.1C73.5,64.7,73.3,64.6,73,64.7z"/>
	<polygon class="st29" points="72.2,64.8 72.2,64.8 72.2,64.8 	"/>
	<path class="st29" d="M48.5,66.5c0-0.3,0-0.5-0.3-0.6c-1.1-0.7-2.7,0.2-2.7,1.5c0,0.5,0,1.2,0.8,1.4c0.9,0.2,0.8-0.6,0.8-1.1
		c0-0.7,0.5-0.6,1-0.7C48.2,66.9,48.4,66.8,48.5,66.5z"/>
	<path class="st29" d="M50.3,69.2c-0.4,0-0.9,0-0.9,0.6c0,0.6-0.2,1-0.9,1c-0.6,0-0.7,0.4-0.7,0.9c0,0.2,0.1,0.3,0.1,0.4
		c0.2,0.3,0.6,0.2,0.9,0.2c0.9,0,1.6-0.4,1.9-1c0.1-0.2,0.2-0.5,0.2-0.8c0-0.2,0-0.3,0-0.5C50.9,69.5,50.8,69.2,50.3,69.2z"/>
	<path class="st29" d="M46,37.1c1-2.5,2.2-4.8,3.6-7.1c1.3-2.1,1.4-3.1,0.2-4.2c-4.3-3.7-8.7-7.2-13.6-9.9c-2.5-1.4-5.1-2.3-7.9-2.6
		c-3.2-0.4-4.9,2.4-4.5,4.6c0.3,1.6,1.2,3,2.1,4.3c2,2.7,4.5,5,7.1,7.1c3.7,3.1,7.7,5.8,11.9,8.2C45.5,38,45.8,37.8,46,37.1z"/>
	<path class="st29" d="M79,64.5c0.1,0,0.2,0,0.2,0c0.2,0,0.3,0,0.4-0.2c0,0,0-0.1,0.1-0.1c0,0,0,0,0,0C79.4,64.1,79.2,64.2,79,64.5z
		"/>
	<path class="st29" d="M48.5,66.5c0-0.3,0-0.5-0.3-0.6c-1.1-0.7-2.7,0.2-2.7,1.5c0,0.5,0,1.2,0.8,1.4c0.9,0.2,0.8-0.6,0.8-1.1
		c0-0.7,0.5-0.6,1-0.7C48.2,66.9,48.4,66.8,48.5,66.5z"/>
	<path class="st29" d="M50.4,28.6c-0.2,0.4-0.4,0.9-0.7,1.4C49.9,29.5,50.2,29,50.4,28.6z"/>
	<path class="st29" d="M50.4,28.6c0.3-0.8,0.4-1.4,0.1-2C50.7,27.2,50.7,27.8,50.4,28.6z"/>
	<path class="st29" d="M49.6,30c-0.7,1.1-1.3,2.3-1.9,3.5C48.3,32.3,48.9,31.2,49.6,30z"/>
	<path class="st29" d="M50.3,69.2c-0.4,0-0.9,0-0.9,0.6c0,0.6-0.2,1-0.9,1c-0.6,0-0.7,0.4-0.7,0.9c0,0.2,0.1,0.3,0.1,0.4
		c0.2,0.3,0.6,0.2,0.9,0.2c0.9,0,1.6-0.4,1.9-1c0.1-0.2,0.2-0.5,0.2-0.8c0-0.2,0-0.3,0-0.5C50.9,69.5,50.8,69.2,50.3,69.2z"/>
	<path class="st29" d="M75.7,42.8c-0.3,0-0.8,0-1,0.2c-0.3,0.4,0.2,0.6,0.4,0.9c0.4,0.7,0.8,1.4,1.2,2.1c1.2,1.7,0.9,4.2-0.5,5.2
		c-2,1.3-4.4,0.8-5.6-1.3c-0.6-1-1.3-2-2-3c-0.4-0.5-0.9-1-1.5-0.3c-3.5,3.8-3.5,9.6-0.7,13.6c1.6,2.3,3.7,3.6,6.1,4.7l0.1,0
		c0,0,0,0,0,0c0.2-0.2,0.5-0.2,0.8-0.1c0,0,0,0.1,0,0.1c0,0.1,0,0.1,0.1,0.2c0,0,0,0,0.1,0.1c0,0,0,0,0,0c0,0,0,0,0.1,0
		c0.1,0,0.2,0,0.3-0.1c1,0,2,0.1,3,0.1c0.1,0,0.2,0,0.3,0c0,0,0.1,0,0.1,0c0,0,0,0,0,0c0.1,0,0.2,0,0.3,0c0,0,0,0,0,0
		c0,0,0.1,0,0.1-0.1c0.1-0.1,0.1-0.2,0.2-0.3c0.5-0.1,0.9-0.2,1.4-0.3c0.1,0,0.2,0,0.2,0c0.2,0,0.3,0,0.4-0.2c0,0,0-0.1,0.1-0.1
		c2.6-1.3,4.6-3.1,5.8-5.8C88.7,51.2,83.9,42.6,75.7,42.8z"/>
	<path class="st13" d="M24.9,14.3c0.6-0.5,1.3-0.9,2.2-1C26.2,13.4,25.5,13.8,24.9,14.3z"/>
	<path class="st13" d="M24.1,15.4c0.2-0.4,0.5-0.8,0.8-1.1C24.6,14.6,24.3,15,24.1,15.4z"/>
	<path class="st13" d="M41.5,19.3c1.7,1.2,3.4,2.5,5,3.8C44.9,21.8,43.2,20.5,41.5,19.3z"/>
	<path class="st13" d="M45.6,37.8c0.2-0.1,0.3-0.3,0.4-0.6c0.5-1.2,1-2.4,1.6-3.6c-0.6,1.2-1.1,2.4-1.6,3.6
		C45.9,37.5,45.8,37.7,45.6,37.8z"/>
	<path class="st13" d="M179.3,153.4c-1.4-3.7-2.9-7.4-4.5-11.1c-2.5-5.9-4.8-11.9-7.2-17.8c-2.5-5.9-5.2-11.7-7.5-17.7
		c-1.9-4.9-4-9.7-5.9-14.6c-2.2-5.5-4.5-11-6.8-16.5c-1.7-4-3.3-8-5-12.1c-1.2-3-2.5-6-3.8-9c-1.6-3.8-3.1-7.6-4.7-11.4
		c-1.2-3-3.1-5.4-6.1-6.8c-3.2-1.6-6.7-2.4-10-3.6c-3.9-1.4-7.8-2.7-11.8-4.1c-4.9-1.6-9.8-3.2-14.7-4.9c-2.6-0.9-5.1-1.9-7.7-2.7
		c-3.5-1-6.9-2.2-10.3-3.4c-3-1.1-6-2.1-9.2-1.9c-3.4,0.2-6.5,1.2-8.7,3.9c-0.7,0.9-1.4,0.6-2,0c-5.5-5-11.5-9.3-18.4-12.1
		c-3.8-1.5-7.7-2.4-11.8-0.7c-3,1.3-5.2,3.4-6.1,6.5c-1.6,5.1,0.1,9.6,3.2,13.7c3.5,4.5,7.9,8.1,12.5,11.5c2.6,1.9,5.3,3.5,8,5.1
		c0.6,0.3,1.5,0.6,1,1.7c-1.1,2.2-2.2,4.5-3.3,6.7c-1.4,2.8-2.8,5.7-4.2,8.6c0.3,0,0.6,0,0.8,0.1c0.3,0.1,0.5,0.2,0.7,0.4
		c0.9,0.8,1.7,1.6,2.6,2.4c-0.8-0.8-1.7-1.6-2.6-2.4c-0.2-0.2-0.4-0.3-0.7-0.4c-0.3-0.1-0.5-0.1-0.8-0.1c-0.7,1.3-1.5,2.6-2.1,4
		c-2,4.1-3.9,8.3-5.9,12.4c-1.7,3.4-1.5,6.9-0.4,10.2c1.7,4.8,4,9.3,5.9,14.1c3.1,7.7,6.2,15.5,9.6,23.2c1.9,4.2,3.5,8.6,5.2,12.9
		c2,4.7,4,9.4,5.8,14.1c1.9,4.8,4,9.6,6,14.4c1.4,3.5,2.8,7,4.2,10.5c1.9,4.5,3.9,9,5.8,13.6c1.2,2.8,2.2,5.6,3.6,8.2
		c1.5,2.7,3.7,4.7,6.5,5.7c3.1,1.2,6.3,1.3,9.5,0c1.6-0.6,3.1-1.3,4.7-2c3.1-1.2,6.3-2.3,9.3-3.7c3.7-1.7,7.6-3.3,11.4-4.7
		c5.4-2.1,10.6-4.6,16-6.6c5.6-2.1,11.1-4.5,16.6-6.8c2.2-0.9,4.6-1.5,6.6-2.9c-0.1,0-0.2,0-0.2,0c0.1,0,0.2,0,0.2,0
		c0.3-0.1,0.7-0.1,1-0.3c5.4-2.2,10.8-4.6,16.3-6.7c3.8-1.4,6.8-3.5,8.6-7.1C180,159.9,180.5,156.7,179.3,153.4z M66.7,46.5
		c0.6-0.7,1.1-0.3,1.5,0.3c0.7,1,1.4,2,2,3c1.2,2.1,3.6,2.6,5.6,1.3c1.4-1,1.7-3.5,0.5-5.2c-0.5-0.7-0.8-1.4-1.2-2.1
		c-0.2-0.3-0.7-0.5-0.4-0.9c0.2-0.2,0.7-0.2,1-0.2c8.2-0.1,13.1,8.4,9.9,15.5c-1.2,2.7-3.2,4.6-5.8,5.8c0,0,0,0.1-0.1,0.1
		c-0.1,0.2-0.3,0.2-0.4,0.2c-0.1,0-0.2,0-0.2,0c-0.5,0.1-0.9,0.2-1.4,0.3c0,0.1-0.1,0.2-0.2,0.3c0,0-0.1,0.1-0.1,0.1c0,0,0,0,0,0
		c-0.1,0-0.2,0-0.3,0c0,0,0,0,0,0c0,0-0.1,0-0.1,0c-0.1,0-0.2,0-0.3,0c-1,0-2-0.1-3-0.1c-0.1,0.1-0.2,0.2-0.3,0.1c0,0,0,0-0.1,0
		c0,0,0,0,0,0c0,0,0,0-0.1-0.1c0,0-0.1-0.1-0.1-0.2c0,0,0-0.1,0-0.1c-0.3-0.1-0.6-0.1-0.8,0.1c0,0,0,0,0,0l-0.1,0
		c-2.4-1-4.5-2.4-6.1-4.7C63.3,56.1,63.3,50.3,66.7,46.5z M51,69.9c0,0.2,0,0.3,0,0.5c0,0.3-0.1,0.6-0.2,0.8c-0.3,0.6-0.9,1-1.9,1
		c-0.3,0-0.7,0-0.9-0.2c-0.1-0.1-0.1-0.2-0.1-0.4c0-0.5,0.1-0.9,0.7-0.9c0.7,0,0.8-0.4,0.9-1c0-0.6,0.5-0.6,0.9-0.6
		C50.8,69.2,50.9,69.5,51,69.9z M47,67.7c0,0.5,0.1,1.3-0.8,1.1c-0.7-0.2-0.7-0.9-0.8-1.4c0-1.3,1.6-2.2,2.7-1.5
		c0.3,0.2,0.3,0.4,0.3,0.6c0,0.3-0.2,0.5-0.5,0.5C47.5,67,47,67,47,67.7z M32.9,29.4c-2.6-2.2-5.1-4.4-7.1-7.1
		C24.9,21,24,19.6,23.7,18c-0.2-0.9,0-1.8,0.4-2.6c0.2-0.4,0.5-0.8,0.8-1.1c0.6-0.5,1.3-0.9,2.2-1c0.4,0,0.7,0,1.1,0
		c2.8,0.3,5.4,1.2,7.9,2.6c1.9,1,3.6,2.2,5.4,3.4c1.7,1.2,3.4,2.5,5,3.8c1.1,0.9,2.2,1.8,3.2,2.7c0.3,0.3,0.5,0.5,0.7,0.8
		c0.3,0.5,0.2,1.1-0.1,2c-0.2,0.4-0.4,0.9-0.7,1.4c-0.7,1.1-1.3,2.3-1.9,3.5c-0.6,1.2-1.1,2.4-1.6,3.6c-0.1,0.3-0.3,0.5-0.4,0.6
		c-0.2,0.1-0.4,0-0.8-0.2C40.6,35.2,36.7,32.5,32.9,29.4z M46.4,71.5c-1.8-1.8-3.6-3.7-5.3-5.5C42.8,67.8,44.5,69.7,46.4,71.5
		c3.9,4,7.8,8,11.8,11.9C54.2,79.5,50.3,75.4,46.4,71.5z M101.7,143.3c-1.5,4-3.4,7.8-5.1,11.7c-0.5,1.1-0.8,2.2-1.3,3.2
		c-1.1,2.3-2.9,3.3-5.5,3.5c-3.3,0.2-7.3-3.8-5.3-8.6c1.2-2.9,2.4-5.7,3.6-8.6c1.7-4,3.3-7.9,5-11.8c1.5-3.6,3-7.2,4.5-10.8
		c0.5-1.3,1-2.5,1.5-3.8l0,0c-1.2-0.5-2.2-1.1-2.9-2c-0.4-0.6-0.8-1.2-1-1.9c-0.5,1.2-0.6,2.6-1.1,3.8c-1.9,4.9-5.4,8-10.4,9.7
		c-3.9,1.4-7.6,0.8-11.1-0.8c-4.8-2.2-7.8-6.1-8.9-11.3c-0.7-3-0.5-5.9,0.6-8.8c1.5-3.8,4.2-6.6,7.7-8.5c0.3-0.2,0.7-0.3,0.8-0.6
		c0.9-0.3,1.9-0.6,2.8-0.7c0.7-0.1,1.4-0.3,2.1-0.3c0.5,0,1-0.1,1.4-0.1c0.5,0,1,0,1.4,0c1.2,0.1,2.4,0.3,3.6,0.7c3.3,1.1,6,3.1,8,6
		c1,1.5,2.1,3,2.3,4.8c0.2,2,0.9,4,0.6,6.1c0.2,0.7,0.6,1.4,1,1.9c0.7,0.9,1.7,1.6,2.9,2c1.1-2.5,2.1-5,3.2-7.5
		c0.2-0.5,0.4-1.1,0.7-1.6c0.7-1.6,1.3-3.2,2-4.8c1.1-2.8,2.3-5.6,3.5-8.3c1.3-2.8,2.4-5.7,3.6-8.6c0.2-0.5,0.4-0.9,0.6-1.2
		c0.5-0.8,1.2-1.5,2.1-1.9c0.3-0.2,0.7-0.3,1-0.5c0.1-0.2,0.1-0.3,0.3-0.4c0.1,0,0.2,0,0.2,0c0,0,0,0,0,0c0,0,0.1,0,0.1,0
		c0.1,0,0.2,0,0.3,0c0.7,0,1.4,0,2,0c0.3,0,0.6-0.1,0.8,0.1c0.1,0.1,0.1,0.2,0.1,0.3c3.8,1.6,4.5,5.1,3.2,8.7
		c-2.3,6.1-5.3,12-7.5,18.1c-0.9,2.6-1.9,5.1-3.1,7.6c-1.9,3.9-3.3,8-5,12C105.2,134.5,103.3,138.9,101.7,143.3z M124.2,148.2
		c-5.9-1.8-9.6-5.7-11.5-11.6c-0.3-1,0.2-2.2-0.4-3.1c-0.7-0.2-1.2-0.6-1.6-1c-0.2-0.2-0.4-0.5-0.6-0.7c0.2,0.2,0.4,0.5,0.6,0.7
		c0.4,0.5,0.9,0.9,1.6,1c0-1.6,0.1-3.2,0.5-4.7c0.1-0.2,0.1-0.5,0.2-0.7c0.1-0.5,0.3-1,0.5-1.4c0.7-1.6,1.6-3.2,2.9-4.5
		c4-4.3,8.8-6,14.7-5c6.1,1.1,10.1,4.8,12.2,10.4c1.3,3.5,1.1,7.2-0.3,10.9c-1.5,3.8-3.9,6.6-7.5,8.4c-1.7,0.9-3.5,1.7-5.5,1.7
		c-1.2,0-2.4,0-3.7,0.1c-0.3,0.3-0.5,0.6-0.8,0.5c-0.1,0-0.2-0.1-0.3-0.2c0-0.1-0.1-0.2-0.1-0.3
		C124.8,148.5,124.5,148.3,124.2,148.2c0.3,1.2,1.3,2.1,2.2,2.8C125.4,150.3,124.5,149.4,124.2,148.2z M136,160.6
		c-1-0.9-1.8-1.8-2.7-2.7C134.2,158.9,135.1,159.8,136,160.6c0.7,0.6,1.3,1.3,1.9,2C137.4,162,136.7,161.3,136,160.6z"/>
	<path class="st13" d="M99,118.2L99,118.2c-1.2-0.5-2.2-1.1-2.9-2C96.8,117,97.8,117.7,99,118.2z"/>
	<path class="st13" d="M58.8,186.8c-2.6-0.1-5.2-0.2-7.8,0.2c-4,0.7-8.1,0.9-12.2,1.2c-2.3,0.2-4.7,0.3-7,0.8
		c-3.6,0.8-7.2-1.6-7.5-5.5c-0.4-5.3-1-10.5-1.3-15.8c-0.3-4.4-0.9-8.8-1.2-13.2c-0.4-5.1-1-10.3-1.4-15.4
		c-0.4-4.2-0.9-8.5-1.2-12.7c-0.4-5.3-0.9-10.6-1.4-15.9c-0.5-4.7-1-9.5-1.5-14.2c-0.4-3.8-0.8-7.6-1.2-11.4
		c-0.3-2.8-0.4-5.5-0.7-8.3c-0.1-1.5,0.1-3,1-4.2c0.8-1,1.8-1.9,2.7-2.8c4-4.2,8-8.5,11.9-12.7c-1-1.8-2.4-3.1-3.8-4.5
		C26,52,25.6,52,25.1,52c-0.4,0.3-0.8,0.6-1.1,1c-2.5,2.6-5,5.3-7.4,7.9c-2.5,2.7-5.1,5.2-7.4,8.1c-1.9,2.4-2,5.4-1.8,8.4
		c0.3,3.8,0.7,7.7,1,11.5c0.4,4.7,0.8,9.4,1.2,14.1c0.8,0,1.2-0.8,2-0.9c0,0.8-0.5,1.2-1,1.2c-1.3,0.1-1.2,0.6-0.6,1.4
		c0.1,0.2,0.2,0.5,0.2,0.7c-0.2,3.4,0.4,6.8,0.6,10.2c0.2,3.3,0.8,6.5,1,9.8c0.3,3.7,0.8,7.5,1.1,11.2c0.2,2.6,0.3,5.2,0.6,7.9
		c0.6,5.5,1.1,11,1.6,16.5c0.2,2.7,0.2,5.4,0.7,8c0.5,2.4,0.6,4.8,0.8,7.2c0.4,4,0.3,8.1,1.5,12c1.4,4.3,6.1,7.8,10.6,8.1
		c4.2,0.2,8.3-0.6,12.5-0.8c2.3-0.1,4.6-0.1,6.8-0.6c3.2-0.7,6.5-0.8,9.7-1c1.2-0.1,2-0.6,2.8-1.3c1-0.9,1.3-2.1,0.9-3.4
		C61.2,188,60.3,186.9,58.8,186.8z M14.2,103.5c-1.7-1.3-2.7-2.7-3.8-4.5c1.3,0.3,1.4,1.3,2.1,1.7c0.5-0.4,0.1-0.9,0.6-1.4
		c0,1.9,1.7,1.7,2.7,2.5C15.2,102.3,12.9,100.9,14.2,103.5z"/>
	<path class="st13" d="M30.1,56.9c1.5-1.5,3.1-3,4.5-4.6c1.4-1.5,1.3-3.5,0-4.8c-1.2-1.2-3.9-1.5-5.1-0.2c-1.6,1.5-3.2,3-4.4,4.7
		c0.5,0,0.9,0.1,1.3,0.4C27.8,53.8,29.2,55.2,30.1,56.9z"/>
	<path class="st13" d="M118.6,83.3c-0.7,0-1.4,0-2,0C117.3,83.3,117.9,83.3,118.6,83.3C118.6,83.3,118.6,83.3,118.6,83.3z"/>
	<path class="st13" d="M102.2,110.6c0.2-0.5,0.4-1.1,0.7-1.6C102.6,109.5,102.4,110.1,102.2,110.6z"/>
	<path class="st13" d="M114.6,84.1c-0.9,0.5-1.5,1.1-2.1,1.9C113,85.3,113.7,84.6,114.6,84.1z"/>
	<path class="st13" d="M77.7,96.6c0.5,0,1-0.1,1.4-0.1C78.7,96.5,78.2,96.6,77.7,96.6z"/>
	<path class="st13" d="M75.6,96.9c-0.9,0.2-1.9,0.4-2.8,0.7l0,0C73.7,97.4,74.7,97.1,75.6,96.9z"/>
	<path class="st13" d="M112.7,128.8c-0.4,1.5-0.5,3-0.5,4.7c0,0,0,0,0,0C112.2,131.9,112.4,130.3,112.7,128.8z"/>
	<path class="st13" d="M112.9,128.1c0.1-0.5,0.3-1,0.5-1.4C113.3,127.1,113.1,127.6,112.9,128.1z"/>
	<path class="st13" d="M51,69.9c-0.1-0.4-0.2-0.7-0.6-0.7c-0.4,0-0.9,0-0.9,0.6c0,0.6-0.2,1-0.9,1c-0.6,0-0.7,0.4-0.7,0.9
		c0,0.2,0.1,0.3,0.1,0.4c0.2,0.3,0.6,0.2,0.9,0.2c0.9,0,1.6-0.4,1.9-1c0.1-0.2,0.2-0.5,0.2-0.8C51,70.2,51,70,51,69.9z"/>
	<path class="st13" d="M48.9,72.2c-0.3,0-0.7,0-0.9-0.2C48.2,72.2,48.6,72.2,48.9,72.2c0.9,0,1.6-0.4,1.9-1
		C50.5,71.8,49.9,72.2,48.9,72.2z"/>
	<path class="st13" d="M48.5,66.5c0-0.3,0-0.5-0.3-0.6c-1.1-0.7-2.7,0.2-2.7,1.5c0,0.5,0,1.2,0.8,1.4c0.9,0.2,0.8-0.6,0.8-1.1
		c0-0.7,0.5-0.6,1-0.7C48.2,66.9,48.4,66.8,48.5,66.5z"/>
	<path class="st13" d="M126.3,148.6c-0.4,0-0.8,0-1.2,0c0,0.1,0.1,0.2,0.1,0.3c0.1,0.2,0.2,0.2,0.3,0.2
		C125.8,149.2,126,148.9,126.3,148.6z"/>
	<path class="st13" d="M76.6,65.1c0.1,0,0.2,0,0.3,0c0,0,0.1,0,0.1,0c0,0,0,0,0,0c0.1,0,0.2,0,0.3,0c0,0,0,0,0,0c0,0,0.1,0,0.1-0.1
		c0.1-0.1,0.1-0.2,0.2-0.3c0,0,0,0,0,0c0,0,0,0,0,0C77.2,64.6,76.8,64.7,76.6,65.1z"/>
	<path class="st13" d="M77,65.1C77,65.1,77,65.1,77,65.1C77,65.1,77,65.1,77,65.1z"/>
	<path class="st13" d="M77.3,65.1C77.3,65.1,77.3,65.1,77.3,65.1C77.3,65.1,77.3,65.1,77.3,65.1z"/>
	<path class="st13" d="M77.4,65c0.1-0.1,0.1-0.2,0.2-0.3c0,0,0,0,0,0C77.5,64.9,77.5,65,77.4,65z"/>
	<path class="st13" d="M116.6,83.3c-0.1,0-0.2,0-0.3,0c0,0-0.1,0-0.1,0c0,0,0,0,0,0c-0.1,0-0.2,0-0.2,0c-0.1,0.1-0.2,0.2-0.3,0.4
		c0,0,0,0,0,0c0,0,0,0,0,0C116,83.8,116.3,83.6,116.6,83.3z"/>
	<path class="st13" d="M116.1,83.3C116.1,83.3,116.1,83.3,116.1,83.3C116.1,83.3,116.1,83.3,116.1,83.3z"/>
	<path class="st13" d="M115.9,83.3c-0.1,0.1-0.2,0.2-0.3,0.4c0,0,0,0,0,0C115.7,83.5,115.8,83.4,115.9,83.3z"/>
	<path class="st13" d="M118.6,83.3L118.6,83.3c0.2,0.3,0.5,0.4,0.9,0.4c0-0.1-0.1-0.2-0.1-0.3C119.2,83.2,118.9,83.3,118.6,83.3z"/>
	<path class="st13" d="M118.6,83.3c0.3,0,0.6-0.1,0.8,0.1C119.2,83.2,118.9,83.3,118.6,83.3C118.6,83.3,118.6,83.3,118.6,83.3
		L118.6,83.3z"/>
	<path class="st13" d="M79,64.5c0.1,0,0.2,0,0.2,0c0.2,0,0.3,0,0.4-0.2c0,0,0-0.1,0.1-0.1c0,0,0,0,0,0c0,0,0,0,0,0
		C79.4,64.1,79.2,64.2,79,64.5z"/>
	<path class="st13" d="M79.7,64.3c0,0,0-0.1,0.1-0.1c0,0,0,0,0,0C79.7,64.2,79.7,64.2,79.7,64.3z"/>
	<path class="st13" d="M73,64.7c0,0,0,0.1,0,0.1c0,0.1,0,0.1,0.1,0.2c0,0,0,0,0.1,0.1c0,0,0,0,0,0c0,0,0,0,0.1,0
		c0.1,0,0.2,0,0.3-0.1c0,0,0,0,0,0C73.5,64.7,73.3,64.6,73,64.7z"/>
	<path class="st13" d="M73.2,65.1c0.1,0,0.2,0,0.3-0.1v0c0,0,0,0,0,0C73.4,65.1,73.3,65.1,73.2,65.1z"/>
	<path class="st13" d="M73.2,65.1C73.2,65.1,73.2,65.1,73.2,65.1C73.2,65.1,73.2,65.1,73.2,65.1z"/>
	<polygon class="st13" points="72.2,64.8 72.2,64.8 72.2,64.8 	"/>
	<polygon class="st13" points="72.2,64.8 72.2,64.8 72.2,64.8 	"/>
	<path class="st13" d="M13.1,99.2c-0.5,0.5-0.1,1.1-0.6,1.4c-0.7-0.4-0.9-1.4-2.1-1.7c1.2,1.8,2.1,3.2,3.8,4.5
		c-1.2-2.6,1-1.2,1.5-1.8C14.7,100.9,13,101.1,13.1,99.2z"/>
	<path class="st13" d="M79.1,116.3c2.3,0.4,4-1.9,4-4c0.1-2.2-1.8-4.1-4-4c-2.1,0-3.9,1.9-3.9,4C75.2,114.5,77,116.3,79.1,116.3z"/>
	<path class="st13" d="M128,136.8c2.1,0.2,4.2-1.9,4.2-4c0-2-1.9-4.1-3.9-4.2c-1.9-0.1-4,2-4.1,4C124.1,135.1,126.3,136.7,128,136.8
		z"/>
</g>
</svg>
