<svg xmlns="http://www.w3.org/2000/svg" xmlns:xlink="http://www.w3.org/1999/xlink" viewBox="0 0 430 430" width="430" height="430" preserveAspectRatio="xMidYMid meet" style="width: 100%; height: 100%; transform: translate3d(0px, 0px, 0px); content-visibility: visible;"><defs><clipPath id="__lottie_element_5768"><rect width="430" height="430" x="0" y="0"/></clipPath><clipPath id="__lottie_element_5770"><path d="M0,0 L430,0 L430,430 L0,430z"/></clipPath></defs><g clip-path="url(#__lottie_element_5768)"><g clip-path="url(#__lottie_element_5770)" transform="matrix(1,0,0,1,0,0)" opacity="1" style="display: block;"><g transform="matrix(1,0,0,1,214.80999755859375,332.0660095214844)" opacity="1" style="display: block;"><g opacity="1" transform="matrix(1,0,0,1,0,0)"><path stroke-linecap="round" stroke-linejoin="round" fill-opacity="0" class="primary" stroke="rgb(44,68,221)" stroke-opacity="1" stroke-width="12" d=" M-100.33999633789062,23.514999389648438 C-100.33999633789062,23.514999389648438 -186.80999755859375,-23.514999389648438 -186.80999755859375,-23.514999389648438 C-186.80999755859375,-23.514999389648438 186.80999755859375,-23.514999389648438 186.80999755859375,-23.514999389648438 C186.80999755859375,-23.514999389648438 100.33999633789062,23.514999389648438 100.33999633789062,23.514999389648438 C100.33999633789062,23.514999389648438 -100.33999633789062,23.514999389648438 -100.33999633789062,23.514999389648438z"/></g></g><g transform="matrix(1,0,0,1,215,255.77499389648438)" opacity="1" style="display: block;"><g opacity="1" transform="matrix(1,0,0,1,0,0)"><path stroke-linecap="round" stroke-linejoin="round" fill-opacity="0" class="primary" stroke="rgb(44,68,221)" stroke-opacity="1" stroke-width="12" d=" M101.9469985961914,51.775001525878906 C98.88999938964844,34.13800048828125 83.51200103759766,20.725000381469727 65,20.725000381469727 C46.487998962402344,20.725000381469727 31.110000610351562,34.13800048828125 28.05299949645996,51.775001525878906 M-28.05299949645996,51.775001525878906 C-31.110000610351562,34.13800048828125 -46.487998962402344,20.725000381469727 -65,20.725000381469727 C-83.51200103759766,20.725000381469727 -98.88999938964844,34.13800048828125 -101.9469985961914,51.775001525878906 M-30.952999114990234,-2.9519999027252197 C-24.195999145507812,-12.809000015258789 -12.852999687194824,-19.274999618530273 0,-19.274999618530273 C12.852999687194824,-19.274999618530273 24.195999145507812,-12.809000015258789 30.952999114990234,-2.9519999027252197 M-134.70700073242188,51.775001525878906 C-131.45199584960938,16.13800048828125 -101.48600006103516,-11.774999618530273 -65,-11.774999618530273 C-64.4229965209961,-11.774999618530273 -63.847999572753906,-11.767999649047852 -63.27399826049805,-11.753999710083008 M134.70700073242188,51.775001525878906 C131.45199584960938,16.13800048828125 101.48600006103516,-11.774999618530273 65,-11.774999618530273 C64.4229965209961,-11.774999618530273 63.847999572753906,-11.767999649047852 63.27399826049805,-11.753999710083008 M4.706999778747559,51.775001525878906 C4.079999923706055,44.91400146484375 2.4630000591278076,38.3390007019043 0,32.194000244140625 M63.27399826049805,-11.753999710083008 C52.04399871826172,-35.415000915527344 27.93199920654297,-51.775001525878906 0,-51.775001525878906 C-27.93199920654297,-51.775001525878906 -52.04399871826172,-35.415000915527344 -63.27399826049805,-11.753999710083008 C-51.56100082397461,-11.470000267028809 -40.560001373291016,-8.3100004196167 -30.952999114990234,-2.9519999027252197 C-17.006999969482422,4.826000213623047 -5.995999813079834,17.235000610351562 0,32.194000244140625 C5.995999813079834,17.235000610351562 17.006999969482422,4.826000213623047 30.952999114990234,-2.9519999027252197 C40.560001373291016,-8.3100004196167 51.56100082397461,-11.470000267028809 63.27399826049805,-11.753999710083008z"/></g></g><g transform="matrix(1,0,0,1,214.80999755859375,370.2749938964844)" opacity="1" style="display: block;"><g opacity="1" transform="matrix(1,0,0,1,0,0)"><path stroke-linecap="round" stroke-linejoin="round" fill-opacity="0" class="primary" stroke="rgb(44,68,221)" stroke-opacity="1" stroke-width="12" d=" M100.33999633789062,-14.694999694824219 C100.33999633789062,-14.694999694824219 100.33999633789062,14.694999694824219 100.33999633789062,14.694999694824219 C100.33999633789062,14.694999694824219 -100.33999633789062,14.694999694824219 -100.33999633789062,14.694999694824219 C-100.33999633789062,14.694999694824219 -100.33999633789062,-14.694999694824219 -100.33999633789062,-14.694999694824219"/></g></g><g transform="matrix(0.9999319314956665,0.011667962186038494,-0.011667962186038494,0.9999319314956665,201.02674865722656,212.2672882080078)" opacity="1" style="display: block;"><g opacity="1" transform="matrix(1,0,0,1,0,0)"><path stroke-linecap="round" stroke-linejoin="round" fill-opacity="0" class="primary" stroke="rgb(44,68,221)" stroke-opacity="1" stroke-width="12.6" d=" M-65.78169250488281,-158.97657775878906 C-73.5367202758789,-158.8900909423828 -79.60853576660156,-144.5634002685547 -81.06069946289062,-129.1561279296875 C-82.63060760498047,-112.49662017822266 -79.15867614746094,-95.8446273803711 -80.2110366821289,-79.09273529052734 C-81.2745361328125,-62.17412567138672 -85.34484100341797,-45.449363708496094 -92.23225402832031,-30.02501678466797"/></g></g><g transform="matrix(0.9993249773979187,-0.03673703968524933,0.03673703968524933,0.9993249773979187,219.3659210205078,219.67288208007812)" opacity="1" style="display: block;"><g opacity="1" transform="matrix(1,0,0,1,0,0)"><path stroke-linecap="round" stroke-linejoin="round" fill-opacity="0" class="secondary" stroke="rgb(44,68,221)" stroke-opacity="1" stroke-width="12.6" d=" M142.6475830078125,-96.6485824584961 C141.84527587890625,-90.02288055419922 135.177001953125,-85.34395599365234 127.75538635253906,-86.20703125 C127.75538635253906,-86.20703125 -19.556564331054688,-103.27800750732422 -19.556564331054688,-103.27800750732422 C-19.53769874572754,-103.37616729736328 -19.518888473510742,-103.47432708740234 -19.510025024414062,-103.57259368896484 C-19.510025024414062,-103.57259368896484 -16.648231506347656,-127.28942108154297 -16.648231506347656,-127.28942108154297 C-16.648231506347656,-127.28942108154297 130.64376831054688,-110.21861267089844 130.64376831054688,-110.21861267089844 C138.0753936767578,-109.35542297363281 143.44984436035156,-103.28321075439453 142.6475830078125,-96.6485824584961z"/></g><g opacity="1" transform="matrix(1,0,0,1,0,0)"><path stroke-linecap="round" stroke-linejoin="round" fill-opacity="0" class="secondary" stroke="rgb(44,68,221)" stroke-opacity="1" stroke-width="12.6" d=" M-98.49710083007812,-124.36593627929688 C-98.49710083007812,-124.36593627929688 -45.390586853027344,-118.21065521240234 -45.390586853027344,-118.21065521240234"/></g><g opacity="1" transform="matrix(1,0,0,1,0,0)"><path stroke-linecap="round" stroke-linejoin="round" fill-opacity="0" class="secondary" stroke="rgb(44,68,221)" stroke-opacity="1" stroke-width="12.6" d=" M-42.116851806640625,-142.76100158691406 C-42.116851806640625,-142.76100158691406 -47.834815979003906,-95.34959411621094 -47.834815979003906,-95.34959411621094"/></g><g opacity="1" transform="matrix(1,0,0,1,0,0)"><path stroke-linecap="round" stroke-linejoin="round" fill-opacity="0" class="secondary" stroke="rgb(44,68,221)" stroke-opacity="1" stroke-width="12.6" d=" M-95.63409423828125,-149.272705078125 C-95.63409423828125,-149.272705078125 -27.75933837890625,-141.40463256835938 -27.75933837890625,-141.40463256835938 C-20.777877807617188,-140.59971618652344 -15.73732852935791,-134.88851928710938 -16.484342575073242,-128.66458129882812 C-16.484342575073242,-128.66458129882812 -16.648231506347656,-127.28942108154297 -16.648231506347656,-127.28942108154297 C-16.648231506347656,-127.28942108154297 -19.510025024414062,-103.57259368896484 -19.510025024414062,-103.57259368896484 C-19.518888473510742,-103.47432708740234 -19.5379695892334,-103.37616729736328 -19.556564331054688,-103.27800750732422 C-20.465147018432617,-97.20774841308594 -26.63903045654297,-92.96184539794922 -33.5005989074707,-93.76551818847656 C-33.5005989074707,-93.76551818847656 -101.3853530883789,-101.63370513916016 -101.3853530883789,-101.63370513916016"/></g></g><g transform="matrix(0.9999863505363464,0.005222686100751162,-0.005222686100751162,0.9999863505363464,200.7390594482422,211.44924926757812)" opacity="1" style="display: block;"><g opacity="1" transform="matrix(1,0,0,1,0,0)"><path stroke-linecap="round" stroke-linejoin="round" fill-opacity="0" class="primary" stroke="rgb(44,68,221)" stroke-opacity="1" stroke-width="12.6" d=" M-65.64299774169922,34.779998779296875 C-65.59300231933594,18.163000106811523 -64.19599914550781,2.3580000400543213 -60.75699996948242,-10.395999908447266 C-40.68199920654297,-84.85399627685547 -37.38199996948242,-147.48899841308594 -63.52799987792969,-158.86000061035156"/></g></g></g></g></svg>